ffmpeg started on 2025-04-30 at 18:12:42
Report written to "D:\Convert\FFMetrics\reports\ssim_report-6.txt"
Log level: 32
Command line:
ffmpeg -hide_banner -nostdin -i "G:\\\xc0\xed\xe8\xec\xe5\\\xce\xed\xe3\xee\xe8\xed\xe3\xe8\\!_35_\xcb\xe5\xf2\xee_2024\\JamClub\\\xcc\xe5\xf7 \xe8 \xe6\xe5\xe7\xeb \xc2\xe8\xf1\xf2\xee\xf0\xe8\xe8\\JamClub_Tsue_to_Tsurugi_no_Wistoria_07_1080p_HEVC.mkv" -i "G:\\\xc0\xed\xe8\xec\xe5\\\xce\xed\xe3\xee\xe8\xed\xe3\xe8\\!_35_\xcb\xe5\xf2\xee_2024\\JamClub\\\xcc\xe5\xf7 \xe8 \xe6\xe5\xe7\xeb \xc2\xe8\xf1\xf2\xee\xf0\xe8\xe8\\JamClub_Tsue_to_Tsurugi_no_Wistoria_07_1080p.mp4" -lavfi "[0:v]settb=AVTB,setpts=PTS-STARTPTS,format=pix_fmts=yuv420p10,fps=24000/1001,scale=1920:1080:flags=bicubic[main];[1:v]settb=AVTB,setpts=PTS-STARTPTS,format=pix_fmts=yuv420p,fps=24000/1001,scale=1920:1080:flags=bicubic[ref];[main][ref]ssim=eof_action=endall:stats_file='D\\:/Convert/FFMetrics/logs/ssim_logfile-6.txt'" -f null -
Input #0, matroska,webm, from 'G:\Аниме\Онгоинги\!_35_Лето_2024\JamClub\Меч и жезл Вистории\JamClub_Tsue_to_Tsurugi_no_Wistoria_07_1080p_HEVC.mkv':
  Metadata:
    COMPATIBLE_BRANDS: isomiso2avc1mp41
    MAJOR_BRAND     : isom
    MINOR_VERSION   : 512
    ENCODER         : Lavf61.7.100
  Duration: 00:24:08.32, start: -0.001000, bitrate: 1594 kb/s
  Stream #0:0: Video: hevc (Main 10), yuv420p10le(tv, bt709, progressive), 1920x1080 [SAR 1:1 DAR 16:9], 23.98 fps, 23.98 tbr, 1k tbn (default)
      Metadata:
        HANDLER_NAME    : VideoHandler
        VENDOR_ID       : [0][0][0][0]
        ENCODER         : Lavc61.19.100 libx265
        BPS             : 1396511
        DURATION        : 00:24:08.238708333
        NUMBER_OF_FRAMES: 34723
        NUMBER_OF_BYTES : 252810085
        _STATISTICS_WRITING_APP: mkvpropedit v66.0.0 ('Josie') 64-bit
        _STATISTICS_WRITING_DATE_UTC: 2025-04-29 12:44:58
        _STATISTICS_TAGS: BPS DURATION NUMBER_OF_FRAMES NUMBER_OF_BYTES
  Stream #0:1(eng): Audio: aac (LC), 48000 Hz, stereo, fltp (default)
      Metadata:
        HANDLER_NAME    : SoundHandler
        VENDOR_ID       : [0][0][0][0]
        ENCODER         : Lavc61.19.100 aac
        BPS             : 193656
        DURATION        : 00:24:08.280000000
        NUMBER_OF_FRAMES: 67889
        NUMBER_OF_BYTES : 35058524
        _STATISTICS_WRITING_APP: mkvpropedit v66.0.0 ('Josie') 64-bit
        _STATISTICS_WRITING_DATE_UTC: 2025-04-29 12:44:58
        _STATISTICS_TAGS: BPS DURATION NUMBER_OF_FRAMES NUMBER_OF_BYTES
Input #1, mov,mp4,m4a,3gp,3g2,mj2, from 'G:\Аниме\Онгоинги\!_35_Лето_2024\JamClub\Меч и жезл Вистории\JamClub_Tsue_to_Tsurugi_no_Wistoria_07_1080p.mp4':
  Metadata:
    major_brand     : isom
    minor_version   : 512
    compatible_brands: isomiso2avc1mp41
    encoder         : Lavf60.16.100
  Duration: 00:24:08.30, start: 0.000000, bitrate: 4714 kb/s
  Stream #1:0[0x1](und): Video: h264 (High) (avc1 / 0x31637661), yuv420p(progressive), 1920x1080 [SAR 1:1 DAR 16:9], 4517 kb/s, 23.98 fps, 23.98 tbr, 90k tbn (default)
      Metadata:
        handler_name    : VideoHandler
        vendor_id       : [0][0][0][0]
  Stream #1:1[0x2](eng): Audio: aac (LC) (mp4a / 0x6134706D), 48000 Hz, stereo, fltp, 191 kb/s (default)
      Metadata:
        handler_name    : SoundHandler
        vendor_id       : [0][0][0][0]
Stream mapping:
  Stream #0:0 (hevc) -> settb:default
  Stream #1:0 (h264) -> settb:default
  ssim:default -> Stream #0:0 (wrapped_avframe)
  Stream #0:1 -> #0:1 (aac (native) -> pcm_s16le (native))
Output #0, null, to 'pipe:':
  Metadata:
    COMPATIBLE_BRANDS: isomiso2avc1mp41
    MAJOR_BRAND     : isom
    MINOR_VERSION   : 512
    encoder         : Lavf61.7.100
  Stream #0:0: Video: wrapped_avframe, yuv420p10le(tv, bt709, progressive), 1920x1080 [SAR 1:1 DAR 16:9], q=2-31, 200 kb/s, 23.98 fps, 23.98 tbn
      Metadata:
        encoder         : Lavc61.19.100 wrapped_avframe
  Stream #0:1(eng): Audio: pcm_s16le, 48000 Hz, stereo, s16, 1536 kb/s (default)
      Metadata:
        HANDLER_NAME    : SoundHandler
        VENDOR_ID       : [0][0][0][0]
        _STATISTICS_TAGS: BPS DURATION NUMBER_OF_FRAMES NUMBER_OF_BYTES
        BPS             : 193656
        DURATION        : 00:24:08.280000000
        NUMBER_OF_FRAMES: 67889
        NUMBER_OF_BYTES : 35058524
        _STATISTICS_WRITING_APP: mkvpropedit v66.0.0 ('Josie') 64-bit
        _STATISTICS_WRITING_DATE_UTC: 2025-04-29 12:44:58
        encoder         : Lavc61.19.100 pcm_s16le
frame=  113 fps=0.0 q=-0.0 size=N/A time=00:00:04.71 bitrate=N/A speed=9.01x    frame=  276 fps=267 q=-0.0 size=N/A time=00:00:11.51 bitrate=N/A speed=11.1x    frame=  476 fps=308 q=-0.0 size=N/A time=00:00:19.85 bitrate=N/A speed=12.9x    frame=  730 fps=353 q=-0.0 size=N/A time=00:00:30.44 bitrate=N/A speed=14.7x    frame=  978 fps=379 q=-0.0 size=N/A time=00:00:40.79 bitrate=N/A speed=15.8x    frame= 1201 fps=389 q=-0.0 size=N/A time=00:00:50.09 bitrate=N/A speed=16.2x    frame= 1471 fps=407 q=-0.0 size=N/A time=00:01:01.35 bitrate=N/A speed=  17x    frame= 1734 fps=420 q=-0.0 size=N/A time=00:01:12.32 bitrate=N/A speed=17.5x    frame= 1982 fps=428 q=-0.0 size=N/A time=00:01:22.66 bitrate=N/A speed=17.8x    frame= 2241 fps=434 q=-0.0 size=N/A time=00:01:33.46 bitrate=N/A speed=18.1x    frame= 2493 fps=440 q=-0.0 size=N/A time=00:01:43.97 bitrate=N/A speed=18.3x    frame= 2718 fps=440 q=-0.0 size=N/A time=00:01:53.36 bitrate=N/A speed=18.3x    frame= 2951 fps=440 q=-0.0 size=N/A time=00:02:03.08 bitrate=N/A speed=18.3x    frame= 3147 fps=436 q=-0.0 size=N/A time=00:02:11.25 bitrate=N/A speed=18.2x    frame= 3329 fps=430 q=-0.0 size=N/A time=00:02:18.84 bitrate=N/A speed=17.9x    frame= 3530 fps=428 q=-0.0 size=N/A time=00:02:27.23 bitrate=N/A speed=17.8x    frame= 3698 fps=421 q=-0.0 size=N/A time=00:02:34.23 bitrate=N/A speed=17.6x    frame= 3871 fps=417 q=-0.0 size=N/A time=00:02:41.45 bitrate=N/A speed=17.4x    frame= 4072 fps=416 q=-0.0 size=N/A time=00:02:49.83 bitrate=N/A speed=17.3x    frame= 4276 fps=414 q=-0.0 size=N/A time=00:02:58.34 bitrate=N/A speed=17.3x    frame= 4504 fps=416 q=-0.0 size=N/A time=00:03:07.85 bitrate=N/A speed=17.3x    frame= 4718 fps=416 q=-0.0 size=N/A time=00:03:16.77 bitrate=N/A speed=17.4x    frame= 4961 fps=418 q=-0.0 size=N/A time=00:03:26.91 bitrate=N/A speed=17.4x    frame= 5214 fps=421 q=-0.0 size=N/A time=00:03:37.46 bitrate=N/A speed=17.6x    frame= 5466 fps=424 q=-0.0 size=N/A time=00:03:47.97 bitrate=N/A speed=17.7x    frame= 5716 fps=426 q=-0.0 size=N/A time=00:03:58.40 bitrate=N/A speed=17.8x    frame= 5941 fps=427 q=-0.0 size=N/A time=00:04:07.78 bitrate=N/A speed=17.8x    frame= 6140 fps=425 q=-0.0 size=N/A time=00:04:16.08 bitrate=N/A speed=17.7x    frame= 6348 fps=425 q=-0.0 size=N/A time=00:04:24.76 bitrate=N/A speed=17.7x    frame= 6562 fps=424 q=-0.0 size=N/A time=00:04:33.69 bitrate=N/A speed=17.7x    frame= 6750 fps=422 q=-0.0 size=N/A time=00:04:41.53 bitrate=N/A speed=17.6x    frame= 6927 fps=420 q=-0.0 size=N/A time=00:04:48.91 bitrate=N/A speed=17.5x    frame= 7158 fps=421 q=-0.0 size=N/A time=00:04:58.54 bitrate=N/A speed=17.5x    frame= 7397 fps=422 q=-0.0 size=N/A time=00:05:08.51 bitrate=N/A speed=17.6x    frame= 7635 fps=423 q=-0.0 size=N/A time=00:05:18.44 bitrate=N/A speed=17.6x    frame= 7838 fps=422 q=-0.0 size=N/A time=00:05:26.90 bitrate=N/A speed=17.6x    frame= 8113 fps=425 q=-0.0 size=N/A time=00:05:38.37 bitrate=N/A speed=17.7x    frame= 8347 fps=426 q=-0.0 size=N/A time=00:05:48.13 bitrate=N/A speed=17.8x    frame= 8587 fps=427 q=-0.0 size=N/A time=00:05:58.14 bitrate=N/A speed=17.8x    frame= 8844 fps=428 q=-0.0 size=N/A time=00:06:08.86 bitrate=N/A speed=17.9x    frame= 9108 fps=431 q=-0.0 size=N/A time=00:06:19.87 bitrate=N/A speed=  18x    frame= 9387 fps=433 q=-0.0 size=N/A time=00:06:31.51 bitrate=N/A speed=18.1x    frame= 9642 fps=435 q=-0.0 size=N/A time=00:06:42.15 bitrate=N/A speed=18.1x    frame= 9876 fps=435 q=-0.0 size=N/A time=00:06:51.91 bitrate=N/A speed=18.1x    frame=10151 fps=437 q=-0.0 size=N/A time=00:07:03.38 bitrate=N/A speed=18.2x    frame=10411 fps=439 q=-0.0 size=N/A time=00:07:14.22 bitrate=N/A speed=18.3x    frame=10591 fps=437 q=-0.0 size=N/A time=00:07:21.73 bitrate=N/A speed=18.2x    frame=10783 fps=435 q=-0.0 size=N/A time=00:07:29.74 bitrate=N/A speed=18.2x    frame=11035 fps=437 q=-0.0 size=N/A time=00:07:40.25 bitrate=N/A speed=18.2x    frame=11293 fps=438 q=-0.0 size=N/A time=00:07:51.01 bitrate=N/A speed=18.3x    frame=11542 fps=439 q=-0.0 size=N/A time=00:08:01.39 bitrate=N/A speed=18.3x    frame=11802 fps=440 q=-0.0 size=N/A time=00:08:12.24 bitrate=N/A speed=18.3x    frame=12018 fps=440 q=-0.0 size=N/A time=00:08:21.25 bitrate=N/A speed=18.3x    frame=12252 fps=440 q=-0.0 size=N/A time=00:08:31.01 bitrate=N/A speed=18.3x    frame=12506 fps=440 q=-0.0 size=N/A time=00:08:41.60 bitrate=N/A speed=18.4x    frame=12743 fps=441 q=-0.0 size=N/A time=00:08:51.48 bitrate=N/A speed=18.4x    frame=12987 fps=441 q=-0.0 size=N/A time=00:09:01.66 bitrate=N/A speed=18.4x    frame=13216 fps=441 q=-0.0 size=N/A time=00:09:11.21 bitrate=N/A speed=18.4x    frame=13446 fps=441 q=-0.0 size=N/A time=00:09:20.81 bitrate=N/A speed=18.4x    frame=13720 fps=443 q=-0.0 size=N/A time=00:09:32.23 bitrate=N/A speed=18.5x    frame=13997 fps=444 q=-0.0 size=N/A time=00:09:43.79 bitrate=N/A speed=18.5x    frame=14253 fps=445 q=-0.0 size=N/A time=00:09:54.46 bitrate=N/A speed=18.6x    frame=14478 fps=445 q=-0.0 size=N/A time=00:10:03.85 bitrate=N/A speed=18.6x    frame=14719 fps=445 q=-0.0 size=N/A time=00:10:13.90 bitrate=N/A speed=18.6x    frame=14938 fps=445 q=-0.0 size=N/A time=00:10:23.03 bitrate=N/A speed=18.6x    frame=15178 fps=445 q=-0.0 size=N/A time=00:10:33.04 bitrate=N/A speed=18.6x    frame=15400 fps=445 q=-0.0 size=N/A time=00:10:42.30 bitrate=N/A speed=18.6x    frame=15655 fps=446 q=-0.0 size=N/A time=00:10:52.94 bitrate=N/A speed=18.6x    frame=15891 fps=446 q=-0.0 size=N/A time=00:11:02.78 bitrate=N/A speed=18.6x    frame=16140 fps=446 q=-0.0 size=N/A time=00:11:13.17 bitrate=N/A speed=18.6x    frame=16377 fps=447 q=-0.0 size=N/A time=00:11:23.05 bitrate=N/A speed=18.6x    frame=16611 fps=447 q=-0.0 size=N/A time=00:11:32.81 bitrate=N/A speed=18.6x    frame=16812 fps=446 q=-0.0 size=N/A time=00:11:41.20 bitrate=N/A speed=18.6x    frame=17085 fps=447 q=-0.0 size=N/A time=00:11:52.58 bitrate=N/A speed=18.6x    frame=17310 fps=447 q=-0.0 size=N/A time=00:12:01.97 bitrate=N/A speed=18.6x    frame=17499 fps=446 q=-0.0 size=N/A time=00:12:09.85 bitrate=N/A speed=18.6x    frame=17675 fps=445 q=-0.0 size=N/A time=00:12:17.19 bitrate=N/A speed=18.5x    frame=17912 fps=445 q=-0.0 size=N/A time=00:12:27.07 bitrate=N/A speed=18.6x    frame=18151 fps=445 q=-0.0 size=N/A time=00:12:37.04 bitrate=N/A speed=18.6x    frame=18384 fps=445 q=-0.0 size=N/A time=00:12:46.76 bitrate=N/A speed=18.6x    frame=18615 fps=445 q=-0.0 size=N/A time=00:12:56.40 bitrate=N/A speed=18.6x    frame=18791 fps=444 q=-0.0 size=N/A time=00:13:03.74 bitrate=N/A speed=18.5x    frame=19000 fps=443 q=-0.0 size=N/A time=00:13:12.45 bitrate=N/A speed=18.5x    frame=19247 fps=444 q=-0.0 size=N/A time=00:13:22.76 bitrate=N/A speed=18.5x    frame=19530 fps=445 q=-0.0 size=N/A time=00:13:34.56 bitrate=N/A speed=18.6x    frame=19774 fps=445 q=-0.0 size=N/A time=00:13:44.74 bitrate=N/A speed=18.6x    frame=20020 fps=446 q=-0.0 size=N/A time=00:13:55.00 bitrate=N/A speed=18.6x    frame=20239 fps=445 q=-0.0 size=N/A time=00:14:04.13 bitrate=N/A speed=18.6x    frame=20514 fps=446 q=-0.0 size=N/A time=00:14:15.60 bitrate=N/A speed=18.6x    frame=20787 fps=447 q=-0.0 size=N/A time=00:14:26.99 bitrate=N/A speed=18.7x    frame=21058 fps=448 q=-0.0 size=N/A time=00:14:38.29 bitrate=N/A speed=18.7x    frame=21337 fps=449 q=-0.0 size=N/A time=00:14:49.93 bitrate=N/A speed=18.7x    frame=21556 fps=449 q=-0.0 size=N/A time=00:14:59.06 bitrate=N/A speed=18.7x    frame=21807 fps=449 q=-0.0 size=N/A time=00:15:09.53 bitrate=N/A speed=18.7x    frame=22048 fps=450 q=-0.0 size=N/A time=00:15:19.58 bitrate=N/A speed=18.8x    frame=22294 fps=450 q=-0.0 size=N/A time=00:15:29.84 bitrate=N/A speed=18.8x    frame=22544 fps=450 q=-0.0 size=N/A time=00:15:40.27 bitrate=N/A speed=18.8x    frame=22779 fps=450 q=-0.0 size=N/A time=00:15:50.07 bitrate=N/A speed=18.8x    frame=23003 fps=450 q=-0.0 size=N/A time=00:15:59.41 bitrate=N/A speed=18.8x    frame=23275 fps=451 q=-0.0 size=N/A time=00:16:10.76 bitrate=N/A speed=18.8x    frame=23564 fps=452 q=-0.0 size=N/A time=00:16:22.81 bitrate=N/A speed=18.8x    frame=23835 fps=453 q=-0.0 size=N/A time=00:16:34.11 bitrate=N/A speed=18.9x    frame=24101 fps=453 q=-0.0 size=N/A time=00:16:45.21 bitrate=N/A speed=18.9x    frame=24369 fps=454 q=-0.0 size=N/A time=00:16:56.39 bitrate=N/A speed=18.9x    frame=24595 fps=454 q=-0.0 size=N/A time=00:17:05.81 bitrate=N/A speed=18.9x    frame=24811 fps=453 q=-0.0 size=N/A time=00:17:14.82 bitrate=N/A speed=18.9x    frame=25030 fps=453 q=-0.0 size=N/A time=00:17:23.95 bitrate=N/A speed=18.9x    frame=25199 fps=452 q=-0.0 size=N/A time=00:17:31.00 bitrate=N/A speed=18.8x    frame=25427 fps=452 q=-0.0 size=N/A time=00:17:40.51 bitrate=N/A speed=18.8x    frame=25634 fps=451 q=-0.0 size=N/A time=00:17:49.15 bitrate=N/A speed=18.8x    frame=25845 fps=451 q=-0.0 size=N/A time=00:17:57.95 bitrate=N/A speed=18.8x    frame=26044 fps=450 q=-0.0 size=N/A time=00:18:06.25 bitrate=N/A speed=18.8x    frame=26261 fps=450 q=-0.0 size=N/A time=00:18:15.30 bitrate=N/A speed=18.8x    frame=26465 fps=450 q=-0.0 size=N/A time=00:18:23.81 bitrate=N/A speed=18.8x    frame=26670 fps=449 q=-0.0 size=N/A time=00:18:32.36 bitrate=N/A speed=18.7x    frame=26844 fps=448 q=-0.0 size=N/A time=00:18:39.61 bitrate=N/A speed=18.7x    frame=27019 fps=447 q=-0.0 size=N/A time=00:18:46.91 bitrate=N/A speed=18.7x    frame=27180 fps=446 q=-0.0 size=N/A time=00:18:53.63 bitrate=N/A speed=18.6x    frame=27357 fps=445 q=-0.0 size=N/A time=00:19:01.01 bitrate=N/A speed=18.6x    frame=27526 fps=444 q=-0.0 size=N/A time=00:19:08.06 bitrate=N/A speed=18.5x    frame=27680 fps=443 q=-0.0 size=N/A time=00:19:14.48 bitrate=N/A speed=18.5x    frame=27862 fps=442 q=-0.0 size=N/A time=00:19:22.07 bitrate=N/A speed=18.4x    frame=28092 fps=442 q=-0.0 size=N/A time=00:19:31.67 bitrate=N/A speed=18.5x    frame=28338 fps=443 q=-0.0 size=N/A time=00:19:41.93 bitrate=N/A speed=18.5x    frame=28560 fps=443 q=-0.0 size=N/A time=00:19:51.19 bitrate=N/A speed=18.5x    frame=28799 fps=443 q=-0.0 size=N/A time=00:20:01.15 bitrate=N/A speed=18.5x    frame=29068 fps=443 q=-0.0 size=N/A time=00:20:12.37 bitrate=N/A speed=18.5x    frame=29328 fps=444 q=-0.0 size=N/A time=00:20:23.22 bitrate=N/A speed=18.5x    frame=29586 fps=444 q=-0.0 size=N/A time=00:20:33.98 bitrate=N/A speed=18.5x    frame=29854 fps=445 q=-0.0 size=N/A time=00:20:45.16 bitrate=N/A speed=18.6x    frame=30083 fps=445 q=-0.0 size=N/A time=00:20:54.71 bitrate=N/A speed=18.6x    frame=30339 fps=445 q=-0.0 size=N/A time=00:21:05.38 bitrate=N/A speed=18.6x    frame=30594 fps=446 q=-0.0 size=N/A time=00:21:16.02 bitrate=N/A speed=18.6x    frame=30787 fps=445 q=-0.0 size=N/A time=00:21:24.07 bitrate=N/A speed=18.6x    frame=30998 fps=445 q=-0.0 size=N/A time=00:21:32.87 bitrate=N/A speed=18.6x    frame=31207 fps=445 q=-0.0 size=N/A time=00:21:41.59 bitrate=N/A speed=18.5x    frame=31413 fps=444 q=-0.0 size=N/A time=00:21:50.18 bitrate=N/A speed=18.5x    frame=31642 fps=444 q=-0.0 size=N/A time=00:21:59.73 bitrate=N/A speed=18.5x    frame=31855 fps=444 q=-0.0 size=N/A time=00:22:08.61 bitrate=N/A speed=18.5x    frame=32057 fps=444 q=-0.0 size=N/A time=00:22:17.04 bitrate=N/A speed=18.5x    frame=32296 fps=444 q=-0.0 size=N/A time=00:22:27.01 bitrate=N/A speed=18.5x    frame=32559 fps=444 q=-0.0 size=N/A time=00:22:37.98 bitrate=N/A speed=18.5x    frame=32797 fps=444 q=-0.0 size=N/A time=00:22:47.90 bitrate=N/A speed=18.5x    frame=33047 fps=444 q=-0.0 size=N/A time=00:22:58.33 bitrate=N/A speed=18.5x    frame=33282 fps=445 q=-0.0 size=N/A time=00:23:08.13 bitrate=N/A speed=18.5x    frame=33501 fps=444 q=-0.0 size=N/A time=00:23:17.27 bitrate=N/A speed=18.5x    frame=33717 fps=444 q=-0.0 size=N/A time=00:23:26.27 bitrate=N/A speed=18.5x    frame=33944 fps=444 q=-0.0 size=N/A time=00:23:35.74 bitrate=N/A speed=18.5x    frame=34150 fps=444 q=-0.0 size=N/A time=00:23:44.33 bitrate=N/A speed=18.5x    frame=34334 fps=443 q=-0.0 size=N/A time=00:23:52.01 bitrate=N/A speed=18.5x    frame=34574 fps=444 q=-0.0 size=N/A time=00:24:02.02 bitrate=N/A speed=18.5x    [Parsed_ssim_10 @ 0000020b6cab5080] SSIM Y:0.994004 (22.221533) U:0.993983 (22.206525) V:0.993943 (22.177403) All:0.993991 (22.211646)
[out#0/null @ 0000020b663ffe00] video:14920KiB audio:271556KiB subtitle:0KiB other streams:0KiB global headers:0KiB muxing overhead: unknown
frame=34723 fps=444 q=-0.0 Lsize=N/A time=00:24:08.23 bitrate=N/A speed=18.5x    
